# Blender 4.1.0
# www.blender.org
mtllib Home3.mtl
o Village
v -3.061141 1.895402 3.308201
v -3.071227 0.009207 3.308201
v 3.081599 -0.000879 3.308201
v 3.081599 1.885315 3.308201
v 0.015273 5.032336 3.308200
v -3.066184 1.890359 -3.303843
v -3.071227 0.004164 -3.303843
v 3.081599 0.004164 -3.303843
v 3.076556 1.890359 -3.303843
v -0.004900 5.032335 -3.311527
v 0.015273 5.032334 3.669940
v 3.316717 1.658816 3.669941
v 3.316717 1.658816 -3.669562
v 0.015273 5.032334 -3.669561
v -3.296258 1.668903 3.669941
v -3.296258 1.668904 -3.669560
v -0.460240 4.475812 0.611154
v 0.539760 4.475812 0.611154
v -0.460240 5.736487 0.611154
v 0.539760 5.736487 0.611154
v -0.460240 5.736487 -0.388846
v 0.539760 5.736487 -0.388846
v -0.460240 4.475812 -0.388846
v 0.539760 4.475812 -0.388846
vn -0.0000 -0.0000 1.0000
vn -1.0000 0.0040 0.0004
vn 1.0000 0.0013 -0.0004
vn -0.0000 -0.0024 -1.0000
vn -0.0000 -0.0000 -1.0000
vn 0.7147 0.6994 -0.0000
vn -0.7126 0.7016 -0.0000
vn -0.0000 1.0000 -0.0000
vn 1.0000 -0.0000 -0.0000
vn -1.0000 -0.0000 -0.0000
vt 0.450742 0.067164
vt 0.646977 0.066842
vt 0.548991 0.162854
vt 0.451550 0.008764
vt 0.646977 0.009157
vt 0.211983 0.264226
vt 0.169623 0.264226
vt 0.169623 0.002922
vt 0.211983 0.002922
vt 0.265202 0.263971
vt 0.221116 0.263971
vt 0.221116 0.003841
vt 0.265202 0.003841
vt 0.676083 0.065285
vt 0.872318 0.064963
vt 0.773580 0.159472
vt 0.676891 0.006886
vt 0.872318 0.007278
vt 0.429628 0.264513
vt 0.275586 0.264513
vt 0.275586 0.004606
vt 0.429628 0.004606
vt 0.817767 0.767210
vt 0.862965 0.767210
vt 0.862965 0.833540
vt 0.817767 0.833540
vt 0.819936 0.836348
vt 0.838602 0.836348
vt 0.838602 0.855015
vt 0.819936 0.855015
vt 0.770365 0.766753
vt 0.815887 0.766753
vt 0.815887 0.833973
vt 0.770365 0.833973
s 0
usemtl phong1SG
f 1/1/1 4/2/1 5/3/1
f 1/1/1 2/4/1 3/5/1 4/2/1
f 2/6/2 1/7/2 6/8/2 7/9/2
f 4/10/3 3/11/3 8/12/3 9/13/3
f 9/14/4 6/15/4 10/16/4
f 9/14/5 8/17/5 7/18/5 6/15/5
f 11/19/6 12/20/6 13/21/6 14/22/6
f 15/20/7 11/19/7 14/22/7 16/21/7
f 17/23/1 18/24/1 20/25/1 19/26/1
f 19/27/8 20/28/8 22/29/8 21/30/8
f 21/26/5 22/25/5 24/24/5 23/23/5
f 18/31/9 24/32/9 22/33/9 20/34/9
f 23/32/10 17/31/10 19/34/10 21/33/10
